%TF.GenerationSoftware,KiCad,Pcbnew,8.0.4*%
%TF.CreationDate,2025-03-26T21:29:21+03:00*%
%TF.ProjectId,PDU_Control_Board,5044555f-436f-46e7-9472-6f6c5f426f61,rev?*%
%TF.SameCoordinates,Original*%
%TF.FileFunction,Profile,NP*%
%FSLAX46Y46*%
G04 Gerber Fmt 4.6, Leading zero omitted, Abs format (unit mm)*
G04 Created by KiCad (PCBNEW 8.0.4) date 2025-03-26 21:29:21*
%MOMM*%
%LPD*%
G01*
G04 APERTURE LIST*
%TA.AperFunction,Profile*%
%ADD10C,0.050000*%
%TD*%
%ADD11C,0.350000*%
G04 APERTURE END LIST*
D10*
X452374000Y-162052000D02*
G75*
G02*
X457962000Y-167640000I0J-5588000D01*
G01*
X457961999Y-243839999D02*
G75*
G02*
X452373999Y-249427999I-5587999J-1D01*
G01*
X225806000Y-249427999D02*
X452373999Y-249427999D01*
X457961999Y-243839999D02*
X457962000Y-167640000D01*
X452374000Y-162052000D02*
X225806003Y-162052003D01*
X225806000Y-249427999D02*
G75*
G02*
X220218001Y-243839999I0J5587999D01*
G01*
X220218003Y-167640003D02*
X220218000Y-243839999D01*
X220218003Y-167640003D02*
G75*
G02*
X225806003Y-162052003I5587997J3D01*
G01*
D11*
X349885000Y-175335000D03*
X349885000Y-169835000D03*
X258445000Y-175335000D03*
X258445000Y-169835000D03*
X231850000Y-194750000D03*
X231850000Y-198950000D03*
X226350000Y-194750000D03*
X226350000Y-198950000D03*
X247650000Y-175335000D03*
X247650000Y-169835000D03*
X452217000Y-240515000D03*
X454497419Y-241459581D03*
X449936581Y-241459581D03*
X455442000Y-243740000D03*
X452217000Y-243740000D03*
X448992000Y-243740000D03*
X454497419Y-246020419D03*
X449936581Y-246020419D03*
X452217000Y-246965000D03*
X278130000Y-175260000D03*
X278130000Y-169760000D03*
X452217000Y-167740000D03*
X226217000Y-164515000D03*
X228497419Y-165459581D03*
X223936581Y-165459581D03*
X229442000Y-167740000D03*
X226217000Y-167740000D03*
X222992000Y-167740000D03*
X228497419Y-170020419D03*
X223936581Y-170020419D03*
X226217000Y-170965000D03*
X405130000Y-175335000D03*
X405130000Y-169835000D03*
X235585000Y-218630000D03*
X238125000Y-218630000D03*
X240665000Y-218630000D03*
X339090000Y-175335000D03*
X339090000Y-169835000D03*
X288925000Y-175260000D03*
X288925000Y-169760000D03*
X431800000Y-175335000D03*
X431800000Y-169835000D03*
X319405000Y-175335000D03*
X319405000Y-169835000D03*
X226217000Y-240515000D03*
X228497419Y-241459581D03*
X223936581Y-241459581D03*
X229442000Y-243740000D03*
X226217000Y-243740000D03*
X222992000Y-243740000D03*
X228497419Y-246020419D03*
X223936581Y-246020419D03*
X226217000Y-246965000D03*
X294640000Y-219065000D03*
X294640000Y-216525000D03*
X294640000Y-213985000D03*
X294640000Y-211445000D03*
X369570000Y-175335000D03*
X369570000Y-169835000D03*
X231850000Y-179510000D03*
X231850000Y-183710000D03*
X226350000Y-179510000D03*
X226350000Y-183710000D03*
X441535000Y-212725000D03*
X441535000Y-210185000D03*
X441535000Y-207645000D03*
X441535000Y-202565000D03*
X441535000Y-200025000D03*
X441535000Y-197485000D03*
X441535000Y-194945000D03*
X380365000Y-175335000D03*
X380365000Y-169835000D03*
X418465000Y-175335000D03*
X418465000Y-169835000D03*
X308610000Y-175335000D03*
X308610000Y-169835000D03*
X235585000Y-228790000D03*
X238125000Y-228790000D03*
X240665000Y-228790000D03*
M02*
