%TF.GenerationSoftware,KiCad,Pcbnew,8.0.4*%
%TF.CreationDate,2025-03-26T21:29:21+03:00*%
%TF.ProjectId,PDU_Control_Board,5044555f-436f-46e7-9472-6f6c5f426f61,rev?*%
%TF.SameCoordinates,Original*%
%TF.FileFunction,Soldermask,Bot*%
%TF.FilePolarity,Negative*%
%FSLAX46Y46*%
G04 Gerber Fmt 4.6, Leading zero omitted, Abs format (unit mm)*
G04 Created by KiCad (PCBNEW 8.0.4) date 2025-03-26 21:29:21*
%MOMM*%
%LPD*%
G01*
G04 APERTURE LIST*
G04 Aperture macros list*
%AMRoundRect*
0 Rectangle with rounded corners*
0 $1 Rounding radius*
0 $2 $3 $4 $5 $6 $7 $8 $9 X,Y pos of 4 corners*
0 Add a 4 corners polygon primitive as box body*
4,1,4,$2,$3,$4,$5,$6,$7,$8,$9,$2,$3,0*
0 Add four circle primitives for the rounded corners*
1,1,$1+$1,$2,$3*
1,1,$1+$1,$4,$5*
1,1,$1+$1,$6,$7*
1,1,$1+$1,$8,$9*
0 Add four rect primitives between the rounded corners*
20,1,$1+$1,$2,$3,$4,$5,0*
20,1,$1+$1,$4,$5,$6,$7,0*
20,1,$1+$1,$6,$7,$8,$9,0*
20,1,$1+$1,$8,$9,$2,$3,0*%
G04 Aperture macros list end*
%ADD10RoundRect,0.250001X1.099999X1.399999X-1.099999X1.399999X-1.099999X-1.399999X1.099999X-1.399999X0*%
%ADD11O,2.700000X3.300000*%
%ADD12RoundRect,0.250001X-1.399999X1.099999X-1.399999X-1.099999X1.399999X-1.099999X1.399999X1.099999X0*%
%ADD13O,3.300000X2.700000*%
%ADD14C,0.900000*%
%ADD15C,8.600000*%
%ADD16C,4.300000*%
%ADD17O,1.700000X2.300000*%
%ADD18R,1.700000X1.700000*%
%ADD19O,1.700000X1.700000*%
%ADD20O,2.300000X1.600000*%
%ADD21RoundRect,0.250000X0.337500X0.475000X-0.337500X0.475000X-0.337500X-0.475000X0.337500X-0.475000X0*%
%ADD22RoundRect,0.250000X-0.337500X-0.475000X0.337500X-0.475000X0.337500X0.475000X-0.337500X0.475000X0*%
%ADD23RoundRect,0.250000X0.475000X-0.337500X0.475000X0.337500X-0.475000X0.337500X-0.475000X-0.337500X0*%
%ADD24RoundRect,0.250000X-0.475000X0.337500X-0.475000X-0.337500X0.475000X-0.337500X0.475000X0.337500X0*%
%ADD25RoundRect,0.250000X-0.350000X-0.450000X0.350000X-0.450000X0.350000X0.450000X-0.350000X0.450000X0*%
%ADD26RoundRect,0.250000X0.450000X-0.350000X0.450000X0.350000X-0.450000X0.350000X-0.450000X-0.350000X0*%
G04 APERTURE END LIST*
D10*
%TO.C,J5*%
X349885000Y-175335000D03*
D11*
X349885000Y-169835000D03*
%TD*%
D10*
%TO.C,J7*%
X258445000Y-175335000D03*
D11*
X258445000Y-169835000D03*
%TD*%
D12*
%TO.C,J1*%
X231850000Y-194750000D03*
D13*
X231850000Y-198950000D03*
X226350000Y-194750000D03*
X226350000Y-198950000D03*
%TD*%
D10*
%TO.C,J12*%
X247650000Y-175335000D03*
D11*
X247650000Y-169835000D03*
%TD*%
D14*
%TO.C,H1*%
X452217000Y-240515000D03*
X454497419Y-241459581D03*
X449936581Y-241459581D03*
X455442000Y-243740000D03*
D15*
X452217000Y-243740000D03*
D14*
X448992000Y-243740000D03*
X454497419Y-246020419D03*
X449936581Y-246020419D03*
X452217000Y-246965000D03*
%TD*%
D10*
%TO.C,J8*%
X278130000Y-175260000D03*
D11*
X278130000Y-169760000D03*
%TD*%
D16*
%TO.C,H4*%
X452217000Y-167740000D03*
%TD*%
D14*
%TO.C,H2*%
X226217000Y-164515000D03*
X228497419Y-165459581D03*
X223936581Y-165459581D03*
X229442000Y-167740000D03*
D15*
X226217000Y-167740000D03*
D14*
X222992000Y-167740000D03*
X228497419Y-170020419D03*
X223936581Y-170020419D03*
X226217000Y-170965000D03*
%TD*%
D10*
%TO.C,J20*%
X405130000Y-175335000D03*
D11*
X405130000Y-169835000D03*
%TD*%
D17*
%TO.C,D16*%
X235585000Y-218630000D03*
X238125000Y-218630000D03*
X240665000Y-218630000D03*
%TD*%
D10*
%TO.C,J10*%
X339090000Y-175335000D03*
D11*
X339090000Y-169835000D03*
%TD*%
D10*
%TO.C,J4*%
X288925000Y-175260000D03*
D11*
X288925000Y-169760000D03*
%TD*%
D10*
%TO.C,J22*%
X431800000Y-175335000D03*
D11*
X431800000Y-169835000D03*
%TD*%
D10*
%TO.C,J2*%
X319405000Y-175335000D03*
D11*
X319405000Y-169835000D03*
%TD*%
D14*
%TO.C,H3*%
X226217000Y-240515000D03*
X228497419Y-241459581D03*
X223936581Y-241459581D03*
X229442000Y-243740000D03*
D15*
X226217000Y-243740000D03*
D14*
X222992000Y-243740000D03*
X228497419Y-246020419D03*
X223936581Y-246020419D03*
X226217000Y-246965000D03*
%TD*%
D18*
%TO.C,J3*%
X294640000Y-219065000D03*
D19*
X294640000Y-216525000D03*
X294640000Y-213985000D03*
X294640000Y-211445000D03*
%TD*%
D10*
%TO.C,J11*%
X369570000Y-175335000D03*
D11*
X369570000Y-169835000D03*
%TD*%
D12*
%TO.C,J13*%
X231850000Y-179510000D03*
D13*
X231850000Y-183710000D03*
X226350000Y-179510000D03*
X226350000Y-183710000D03*
%TD*%
D20*
%TO.C,D37*%
X441535000Y-212725000D03*
X441535000Y-210185000D03*
X441535000Y-207645000D03*
X441535000Y-202565000D03*
X441535000Y-200025000D03*
X441535000Y-197485000D03*
X441535000Y-194945000D03*
%TD*%
D10*
%TO.C,J6*%
X380365000Y-175335000D03*
D11*
X380365000Y-169835000D03*
%TD*%
D10*
%TO.C,J21*%
X418465000Y-175335000D03*
D11*
X418465000Y-169835000D03*
%TD*%
D10*
%TO.C,J9*%
X308610000Y-175335000D03*
D11*
X308610000Y-169835000D03*
%TD*%
D17*
%TO.C,D41*%
X235585000Y-228790000D03*
X238125000Y-228790000D03*
X240665000Y-228790000D03*
%TD*%
D21*
%TO.C,C47*%
X406167500Y-195580000D03*
X404092500Y-195580000D03*
%TD*%
%TO.C,C56*%
X418867500Y-212090000D03*
X416792500Y-212090000D03*
%TD*%
D22*
%TO.C,C55*%
X416792500Y-214630000D03*
X418867500Y-214630000D03*
%TD*%
%TO.C,C60*%
X430127500Y-214630000D03*
X432202500Y-214630000D03*
%TD*%
D23*
%TO.C,C36*%
X429260000Y-224557500D03*
X429260000Y-222482500D03*
%TD*%
D22*
%TO.C,C6*%
X303127500Y-218440000D03*
X305202500Y-218440000D03*
%TD*%
D23*
%TO.C,C21*%
X373380000Y-230907500D03*
X373380000Y-228832500D03*
%TD*%
D24*
%TO.C,C15*%
X307975000Y-207877500D03*
X307975000Y-209952500D03*
%TD*%
D22*
%TO.C,C1*%
X303127500Y-213360000D03*
X305202500Y-213360000D03*
%TD*%
D21*
%TO.C,C12*%
X317902500Y-218440000D03*
X315827500Y-218440000D03*
%TD*%
D22*
%TO.C,C73*%
X303127500Y-215900000D03*
X305202500Y-215900000D03*
%TD*%
D21*
%TO.C,C51*%
X405532500Y-212090000D03*
X403457500Y-212090000D03*
%TD*%
D23*
%TO.C,C5*%
X305435000Y-222652500D03*
X305435000Y-220577500D03*
%TD*%
%TO.C,C2*%
X315595000Y-222652500D03*
X315595000Y-220577500D03*
%TD*%
D21*
%TO.C,C61*%
X432202500Y-212090000D03*
X430127500Y-212090000D03*
%TD*%
D23*
%TO.C,C72*%
X310515000Y-222652500D03*
X310515000Y-220577500D03*
%TD*%
D21*
%TO.C,C74*%
X317902500Y-213360000D03*
X315827500Y-213360000D03*
%TD*%
D23*
%TO.C,C11*%
X307975000Y-222652500D03*
X307975000Y-220577500D03*
%TD*%
D24*
%TO.C,C68*%
X222885000Y-195812500D03*
X222885000Y-197887500D03*
%TD*%
D22*
%TO.C,C53*%
X417427500Y-193040000D03*
X419502500Y-193040000D03*
%TD*%
%TO.C,C48*%
X404092500Y-193040000D03*
X406167500Y-193040000D03*
%TD*%
D21*
%TO.C,C54*%
X419502500Y-195580000D03*
X417427500Y-195580000D03*
%TD*%
D22*
%TO.C,C50*%
X403457500Y-214630000D03*
X405532500Y-214630000D03*
%TD*%
%TO.C,C58*%
X430762500Y-193040000D03*
X432837500Y-193040000D03*
%TD*%
D23*
%TO.C,C22*%
X397510000Y-224557500D03*
X397510000Y-222482500D03*
%TD*%
%TO.C,C10*%
X313055000Y-222652500D03*
X313055000Y-220577500D03*
%TD*%
D24*
%TO.C,C14*%
X315595000Y-207877500D03*
X315595000Y-209952500D03*
%TD*%
D21*
%TO.C,C59*%
X432837500Y-195580000D03*
X430762500Y-195580000D03*
%TD*%
D24*
%TO.C,C75*%
X310515000Y-207877500D03*
X310515000Y-209952500D03*
%TD*%
%TO.C,C4*%
X305435000Y-207877500D03*
X305435000Y-209952500D03*
%TD*%
%TO.C,C44*%
X252730000Y-197717500D03*
X252730000Y-199792500D03*
%TD*%
%TO.C,C7*%
X313055000Y-207877500D03*
X313055000Y-209952500D03*
%TD*%
D23*
%TO.C,C31*%
X413385000Y-224557500D03*
X413385000Y-222482500D03*
%TD*%
D25*
%TO.C,R2*%
X298085000Y-218440000D03*
X300085000Y-218440000D03*
%TD*%
D21*
%TO.C,C3*%
X317902500Y-215900000D03*
X315827500Y-215900000D03*
%TD*%
D26*
%TO.C,R3*%
X310515000Y-227695000D03*
X310515000Y-225695000D03*
%TD*%
M02*
