M48
; DRILL file {KiCad 8.0.4} date 2025-03-26T21:29:20+0300
; FORMAT={-:-/ absolute / metric / decimal}
; #@! TF.CreationDate,2025-03-26T21:29:20+03:00
; #@! TF.GenerationSoftware,Kicad,Pcbnew,8.0.4
; #@! TF.FileFunction,Plated,1,4,PTH
FMAT,2
METRIC
; #@! TA.AperFunction,Plated,PTH,ViaDrill
T1C0.300
; #@! TA.AperFunction,Plated,PTH,ComponentDrill
T2C0.600
; #@! TA.AperFunction,Plated,PTH,ComponentDrill
T3C1.000
; #@! TA.AperFunction,Plated,PTH,ComponentDrill
T4C1.400
; #@! TA.AperFunction,Plated,PTH,ComponentDrill
T5C4.300
%
G90
G05
T1
X222.25Y-217.17
X222.25Y-218.44
X222.25Y-219.71
X222.25Y-222.25
X222.25Y-223.52
X222.25Y-224.79
X222.25Y-227.33
X222.25Y-228.6
X222.25Y-229.87
X222.25Y-232.41
X222.25Y-233.68
X222.25Y-234.95
X236.22Y-192.405
X236.22Y-200.66
X242.57Y-200.66
X243.205Y-174.625
X245.745Y-186.055
X245.745Y-188.595
X246.085Y-181.951
X248.92Y-200.66
X250.19Y-198.755
X252.73Y-218.44
X252.73Y-220.345
X252.73Y-222.25
X252.73Y-224.155
X252.73Y-228.6
X252.73Y-230.505
X252.73Y-232.41
X252.73Y-234.315
X254.0Y-220.98
X254.0Y-231.14
X254.0Y-241.3
X254.95Y-197.805
X256.145Y-181.37
X258.445Y-184.15
X260.35Y-202.565
X261.62Y-220.98
X261.62Y-231.14
X261.62Y-241.3
X265.745Y-198.44
X265.745Y-200.34
X273.685Y-174.625
X276.225Y-186.055
X276.225Y-188.595
X276.482Y-181.867
X281.94Y-201.295
X286.625Y-181.37
X287.02Y-194.945
X287.02Y-207.645
X287.655Y-211.455
X288.925Y-184.15
X297.18Y-207.645
X300.99Y-200.025
X300.99Y-202.565
X301.165Y-218.265
X301.625Y-221.265
X304.165Y-174.625
X304.515Y-206.375
X305.312Y-206.3
X306.705Y-186.055
X306.705Y-188.595
X306.705Y-226.06
X307.015Y-224.155
X307.037Y-181.942
X308.483Y-213.233
X308.483Y-214.249
X308.483Y-215.265
X308.483Y-216.281
X308.483Y-217.297
X308.61Y-226.06
X309.365Y-224.171
X309.499Y-213.233
X309.499Y-214.249
X309.499Y-215.265
X309.499Y-216.281
X309.499Y-217.297
X309.88Y-229.87
X310.515Y-213.233
X310.515Y-214.249
X310.515Y-215.265
X310.515Y-216.281
X310.515Y-217.297
X311.15Y-229.87
X311.531Y-213.233
X311.531Y-214.249
X311.531Y-215.265
X311.531Y-216.281
X311.531Y-217.297
X311.785Y-224.79
X312.547Y-213.233
X312.547Y-214.249
X312.547Y-215.265
X312.547Y-216.281
X312.547Y-217.297
X313.055Y-229.87
X313.515Y-224.155
X313.69Y-197.485
X314.515Y-224.155
X316.23Y-197.485
X317.105Y-181.37
X319.33Y-220.24
X319.405Y-184.15
X319.405Y-208.965
X319.405Y-209.765
X334.645Y-174.625
X337.185Y-186.055
X337.185Y-188.595
X337.479Y-181.951
X347.585Y-181.37
X349.885Y-184.15
X361.635Y-230.19
X361.635Y-232.09
X365.125Y-174.625
X367.665Y-186.055
X367.665Y-188.595
X367.665Y-227.965
X367.967Y-181.942
X373.38Y-227.33
X374.33Y-232.09
X376.555Y-231.775
X378.065Y-181.215
X379.095Y-231.775
X380.365Y-184.15
X381.635Y-231.775
X390.845Y-230.19
X390.845Y-232.09
X396.875Y-234.315
X397.51Y-220.98
X398.46Y-225.74
X398.78Y-188.595
X400.685Y-225.425
X401.955Y-194.31
X402.59Y-210.82
X403.225Y-225.425
X403.86Y-196.85
X406.4Y-196.85
X406.4Y-210.82
X406.72Y-230.19
X406.72Y-232.09
X407.035Y-193.04
X407.035Y-214.63
X412.115Y-188.595
X412.75Y-234.315
X413.385Y-220.98
X414.335Y-225.74
X415.29Y-194.31
X415.925Y-210.82
X416.56Y-225.425
X417.195Y-196.85
X419.1Y-225.425
X419.735Y-196.85
X419.735Y-210.82
X420.37Y-193.04
X420.37Y-214.63
X422.595Y-230.19
X422.595Y-232.09
X425.45Y-188.595
X428.625Y-194.31
X428.625Y-234.315
X429.26Y-210.82
X429.26Y-220.98
X430.21Y-225.74
X430.53Y-196.85
X432.435Y-225.425
X433.07Y-196.85
X433.07Y-210.82
X433.705Y-193.04
X433.705Y-214.63
X434.975Y-225.425
X439.42Y-227.33
X440.69Y-227.33
X441.325Y-186.055
X441.96Y-227.33
X443.865Y-187.96
X444.5Y-227.33
X445.135Y-187.96
X445.77Y-227.33
X447.04Y-227.33
X448.945Y-187.96
X449.58Y-186.055
X450.215Y-187.96
T2
X222.992Y-167.74
X222.992Y-243.74
X223.937Y-165.46
X223.937Y-170.02
X223.937Y-241.46
X223.937Y-246.02
X226.217Y-164.515
X226.217Y-170.965
X226.217Y-240.515
X226.217Y-246.965
X228.497Y-165.46
X228.497Y-170.02
X228.497Y-241.46
X228.497Y-246.02
X229.442Y-167.74
X229.442Y-243.74
X448.992Y-243.74
X449.937Y-241.46
X449.937Y-246.02
X452.217Y-240.515
X452.217Y-246.965
X454.497Y-241.46
X454.497Y-246.02
X455.442Y-243.74
T3
X235.585Y-218.63
X235.585Y-228.79
X238.125Y-218.63
X238.125Y-228.79
X240.665Y-218.63
X240.665Y-228.79
X294.64Y-211.445
X294.64Y-213.985
X294.64Y-216.525
X294.64Y-219.065
X441.535Y-194.945
X441.535Y-197.485
X441.535Y-200.025
X441.535Y-202.565
X441.535Y-207.645
X441.535Y-210.185
X441.535Y-212.725
T4
X226.35Y-179.51
X226.35Y-183.71
X226.35Y-194.75
X226.35Y-198.95
X231.85Y-179.51
X231.85Y-183.71
X231.85Y-194.75
X231.85Y-198.95
X247.65Y-169.835
X247.65Y-175.335
X258.445Y-169.835
X258.445Y-175.335
X278.13Y-169.76
X278.13Y-175.26
X288.925Y-169.76
X288.925Y-175.26
X308.61Y-169.835
X308.61Y-175.335
X319.405Y-169.835
X319.405Y-175.335
X339.09Y-169.835
X339.09Y-175.335
X349.885Y-169.835
X349.885Y-175.335
X369.57Y-169.835
X369.57Y-175.335
X380.365Y-169.835
X380.365Y-175.335
X405.13Y-169.835
X405.13Y-175.335
X418.465Y-169.835
X418.465Y-175.335
X431.8Y-169.835
X431.8Y-175.335
T5
X226.217Y-167.74
X226.217Y-243.74
X452.217Y-243.74
M30
