%TF.GenerationSoftware,KiCad,Pcbnew,8.0.4*%
%TF.CreationDate,2025-03-26T21:29:20+03:00*%
%TF.ProjectId,PDU_Control_Board,5044555f-436f-46e7-9472-6f6c5f426f61,rev?*%
%TF.SameCoordinates,Original*%
%TF.FileFunction,Paste,Bot*%
%TF.FilePolarity,Positive*%
%FSLAX46Y46*%
G04 Gerber Fmt 4.6, Leading zero omitted, Abs format (unit mm)*
G04 Created by KiCad (PCBNEW 8.0.4) date 2025-03-26 21:29:20*
%MOMM*%
%LPD*%
G01*
G04 APERTURE LIST*
G04 Aperture macros list*
%AMRoundRect*
0 Rectangle with rounded corners*
0 $1 Rounding radius*
0 $2 $3 $4 $5 $6 $7 $8 $9 X,Y pos of 4 corners*
0 Add a 4 corners polygon primitive as box body*
4,1,4,$2,$3,$4,$5,$6,$7,$8,$9,$2,$3,0*
0 Add four circle primitives for the rounded corners*
1,1,$1+$1,$2,$3*
1,1,$1+$1,$4,$5*
1,1,$1+$1,$6,$7*
1,1,$1+$1,$8,$9*
0 Add four rect primitives between the rounded corners*
20,1,$1+$1,$2,$3,$4,$5,0*
20,1,$1+$1,$4,$5,$6,$7,0*
20,1,$1+$1,$6,$7,$8,$9,0*
20,1,$1+$1,$8,$9,$2,$3,0*%
G04 Aperture macros list end*
%ADD10RoundRect,0.250000X0.337500X0.475000X-0.337500X0.475000X-0.337500X-0.475000X0.337500X-0.475000X0*%
%ADD11RoundRect,0.250000X-0.337500X-0.475000X0.337500X-0.475000X0.337500X0.475000X-0.337500X0.475000X0*%
%ADD12RoundRect,0.250000X0.475000X-0.337500X0.475000X0.337500X-0.475000X0.337500X-0.475000X-0.337500X0*%
%ADD13RoundRect,0.250000X-0.475000X0.337500X-0.475000X-0.337500X0.475000X-0.337500X0.475000X0.337500X0*%
%ADD14RoundRect,0.250000X-0.350000X-0.450000X0.350000X-0.450000X0.350000X0.450000X-0.350000X0.450000X0*%
%ADD15RoundRect,0.250000X0.450000X-0.350000X0.450000X0.350000X-0.450000X0.350000X-0.450000X-0.350000X0*%
G04 APERTURE END LIST*
D10*
%TO.C,C47*%
X406167500Y-195580000D03*
X404092500Y-195580000D03*
%TD*%
%TO.C,C56*%
X418867500Y-212090000D03*
X416792500Y-212090000D03*
%TD*%
D11*
%TO.C,C55*%
X416792500Y-214630000D03*
X418867500Y-214630000D03*
%TD*%
%TO.C,C60*%
X430127500Y-214630000D03*
X432202500Y-214630000D03*
%TD*%
D12*
%TO.C,C36*%
X429260000Y-224557500D03*
X429260000Y-222482500D03*
%TD*%
D11*
%TO.C,C6*%
X303127500Y-218440000D03*
X305202500Y-218440000D03*
%TD*%
D12*
%TO.C,C21*%
X373380000Y-230907500D03*
X373380000Y-228832500D03*
%TD*%
D13*
%TO.C,C15*%
X307975000Y-207877500D03*
X307975000Y-209952500D03*
%TD*%
D11*
%TO.C,C1*%
X303127500Y-213360000D03*
X305202500Y-213360000D03*
%TD*%
D10*
%TO.C,C12*%
X317902500Y-218440000D03*
X315827500Y-218440000D03*
%TD*%
D11*
%TO.C,C73*%
X303127500Y-215900000D03*
X305202500Y-215900000D03*
%TD*%
D10*
%TO.C,C51*%
X405532500Y-212090000D03*
X403457500Y-212090000D03*
%TD*%
D12*
%TO.C,C5*%
X305435000Y-222652500D03*
X305435000Y-220577500D03*
%TD*%
%TO.C,C2*%
X315595000Y-222652500D03*
X315595000Y-220577500D03*
%TD*%
D10*
%TO.C,C61*%
X432202500Y-212090000D03*
X430127500Y-212090000D03*
%TD*%
D12*
%TO.C,C72*%
X310515000Y-222652500D03*
X310515000Y-220577500D03*
%TD*%
D10*
%TO.C,C74*%
X317902500Y-213360000D03*
X315827500Y-213360000D03*
%TD*%
D12*
%TO.C,C11*%
X307975000Y-222652500D03*
X307975000Y-220577500D03*
%TD*%
D13*
%TO.C,C68*%
X222885000Y-195812500D03*
X222885000Y-197887500D03*
%TD*%
D11*
%TO.C,C53*%
X417427500Y-193040000D03*
X419502500Y-193040000D03*
%TD*%
%TO.C,C48*%
X404092500Y-193040000D03*
X406167500Y-193040000D03*
%TD*%
D10*
%TO.C,C54*%
X419502500Y-195580000D03*
X417427500Y-195580000D03*
%TD*%
D11*
%TO.C,C50*%
X403457500Y-214630000D03*
X405532500Y-214630000D03*
%TD*%
%TO.C,C58*%
X430762500Y-193040000D03*
X432837500Y-193040000D03*
%TD*%
D12*
%TO.C,C22*%
X397510000Y-224557500D03*
X397510000Y-222482500D03*
%TD*%
%TO.C,C10*%
X313055000Y-222652500D03*
X313055000Y-220577500D03*
%TD*%
D13*
%TO.C,C14*%
X315595000Y-207877500D03*
X315595000Y-209952500D03*
%TD*%
D10*
%TO.C,C59*%
X432837500Y-195580000D03*
X430762500Y-195580000D03*
%TD*%
D13*
%TO.C,C75*%
X310515000Y-207877500D03*
X310515000Y-209952500D03*
%TD*%
%TO.C,C4*%
X305435000Y-207877500D03*
X305435000Y-209952500D03*
%TD*%
%TO.C,C44*%
X252730000Y-197717500D03*
X252730000Y-199792500D03*
%TD*%
%TO.C,C7*%
X313055000Y-207877500D03*
X313055000Y-209952500D03*
%TD*%
D12*
%TO.C,C31*%
X413385000Y-224557500D03*
X413385000Y-222482500D03*
%TD*%
D14*
%TO.C,R2*%
X298085000Y-218440000D03*
X300085000Y-218440000D03*
%TD*%
D10*
%TO.C,C3*%
X317902500Y-215900000D03*
X315827500Y-215900000D03*
%TD*%
D15*
%TO.C,R3*%
X310515000Y-227695000D03*
X310515000Y-225695000D03*
%TD*%
M02*
