M48
METRIC,TZ
T1C0.300
T2C0.600
T3C1.000
T4C1.400
T5C4.300
%
G90
G05
T1
X222250Y-217170
X222250Y-218440
X222250Y-219710
X222250Y-222250
X222250Y-223520
X222250Y-224790
X222250Y-227330
X222250Y-228600
X222250Y-229870
X222250Y-232410
X222250Y-233680
X222250Y-234950
X236220Y-192405
X236220Y-200660
X242570Y-200660
X243205Y-174625
X245745Y-186055
X245745Y-188595
X246086Y-181951
X248920Y-200660
X250190Y-198755
X252730Y-218440
X252730Y-220345
X252730Y-222250
X252730Y-224155
X252730Y-228600
X252730Y-230505
X252730Y-232410
X252730Y-234315
X254000Y-220980
X254000Y-231140
X254000Y-241300
X254950Y-197805
X256145Y-181370
X258445Y-184150
X260350Y-202565
X261620Y-220980
X261620Y-231140
X261620Y-241300
X265745Y-198440
X265745Y-200340
X273685Y-174625
X276225Y-186055
X276225Y-188595
X276483Y-181867
X281940Y-201295
X286625Y-181370
X287020Y-194945
X287020Y-207645
X287655Y-211455
X288925Y-184150
X297180Y-207645
X300990Y-200025
X300990Y-202565
X301165Y-218265
X301625Y-221265
X304165Y-174625
X304515Y-206375
X305312Y-206300
X306705Y-186055
X306705Y-188595
X306705Y-226060
X307015Y-224155
X307037Y-181943
X308483Y-213233
X308483Y-214249
X308483Y-215265
X308483Y-216281
X308483Y-217297
X308610Y-226060
X309365Y-224171
X309499Y-213233
X309499Y-214249
X309499Y-215265
X309499Y-216281
X309499Y-217297
X309880Y-229870
X310515Y-213233
X310515Y-214249
X310515Y-215265
X310515Y-216281
X310515Y-217297
X311150Y-229870
X311531Y-213233
X311531Y-214249
X311531Y-215265
X311531Y-216281
X311531Y-217297
X311785Y-224790
X312547Y-213233
X312547Y-214249
X312547Y-215265
X312547Y-216281
X312547Y-217297
X313055Y-229870
X313515Y-224155
X313690Y-197485
X314515Y-224155
X316230Y-197485
X317105Y-181370
X319330Y-220240
X319405Y-184150
X319405Y-208965
X319405Y-209765
X334645Y-174625
X337185Y-186055
X337185Y-188595
X337480Y-181951
X347585Y-181370
X349885Y-184150
X361635Y-230190
X361635Y-232090
X365125Y-174625
X367665Y-186055
X367665Y-188595
X367665Y-227965
X367968Y-181943
X373380Y-227330
X374330Y-232090
X376555Y-231775
X378065Y-181215
X379095Y-231775
X380365Y-184150
X381635Y-231775
X390845Y-230190
X390845Y-232090
X396875Y-234315
X397510Y-220980
X398460Y-225740
X398780Y-188595
X400685Y-225425
X401955Y-194310
X402590Y-210820
X403225Y-225425
X403860Y-196850
X406400Y-196850
X406400Y-210820
X406720Y-230190
X406720Y-232090
X407035Y-193040
X407035Y-214630
X412115Y-188595
X412750Y-234315
X413385Y-220980
X414335Y-225740
X415290Y-194310
X415925Y-210820
X416560Y-225425
X417195Y-196850
X419100Y-225425
X419735Y-196850
X419735Y-210820
X420370Y-193040
X420370Y-214630
X422595Y-230190
X422595Y-232090
X425450Y-188595
X428625Y-194310
X428625Y-234315
X429260Y-210820
X429260Y-220980
X430210Y-225740
X430530Y-196850
X432435Y-225425
X433070Y-196850
X433070Y-210820
X433705Y-193040
X433705Y-214630
X434975Y-225425
X439420Y-227330
X440690Y-227330
X441325Y-186055
X441960Y-227330
X443865Y-187960
X444500Y-227330
X445135Y-187960
X445770Y-227330
X447040Y-227330
X448945Y-187960
X449580Y-186055
X450215Y-187960
T2
X222992Y-167740
X222992Y-243740
X223937Y-165460
X223937Y-170020
X223937Y-241460
X223937Y-246020
X226217Y-164515
X226217Y-170965
X226217Y-240515
X226217Y-246965
X228497Y-165460
X228497Y-170020
X228497Y-241460
X228497Y-246020
X229442Y-167740
X229442Y-243740
X448992Y-243740
X449937Y-241460
X449937Y-246020
X452217Y-240515
X452217Y-246965
X454497Y-241460
X454497Y-246020
X455442Y-243740
T3
X235585Y-218630
X235585Y-228790
X238125Y-218630
X238125Y-228790
X240665Y-218630
X240665Y-228790
X294640Y-211445
X294640Y-213985
X294640Y-216525
X294640Y-219065
X441535Y-194945
X441535Y-197485
X441535Y-200025
X441535Y-202565
X441535Y-207645
X441535Y-210185
X441535Y-212725
T4
X226350Y-179510
X226350Y-183710
X226350Y-194750
X226350Y-198950
X231850Y-179510
X231850Y-183710
X231850Y-194750
X231850Y-198950
X247650Y-169835
X247650Y-175335
X258445Y-169835
X258445Y-175335
X278130Y-169760
X278130Y-175260
X288925Y-169760
X288925Y-175260
X308610Y-169835
X308610Y-175335
X319405Y-169835
X319405Y-175335
X339090Y-169835
X339090Y-175335
X349885Y-169835
X349885Y-175335
X369570Y-169835
X369570Y-175335
X380365Y-169835
X380365Y-175335
X405130Y-169835
X405130Y-175335
X418465Y-169835
X418465Y-175335
X431800Y-169835
X431800Y-175335
T5
X226217Y-167740
X226217Y-243740
X452217Y-243740
M30
